<svg width="449" height="30" viewBox="0 0 449 30" fill="none" xmlns="http://www.w3.org/2000/svg">
<g clip-path="url(#clip0_22198_32856)">
<path d="M188.248 3.22097C187.342 2.4156 186.235 1.81157 185.027 1.30821C183.819 0.804858 182.51 0.603516 181.101 0.603516H171.336V6.2411H181.101C182.107 6.2411 183.013 6.54311 183.718 7.24781C184.423 7.85184 184.825 8.65721 184.825 9.56325V29.3955H191.167V9.56325C191.167 8.35519 190.865 7.14714 190.362 6.03976C189.859 5.03305 189.154 4.02633 188.248 3.22097Z" fill="white"/>
<path d="M204.652 0.603516H191.867V6.44244H204.652V0.603516Z" fill="white"/>
<path d="M58.4847 0.503906C58.4847 1.2086 58.4847 2.11464 58.4847 2.31599C58.4847 5.33612 57.9813 12.7858 53.25 18.0207C51.0353 20.5375 48.0153 22.2489 44.4919 23.0542C44.2906 23.0542 43.9886 23.1549 43.6866 23.1549C42.9819 23.2556 41.9752 23.2556 41.2706 23.2556H40.4652V0.503906H33.9219V29.3965H38.6532C41.3712 29.3965 43.7873 29.3965 46.1026 28.7925C54.6593 26.7791 60.6993 21.1415 63.4174 12.3831C64.6254 8.45693 64.9274 4.73209 64.9274 2.31599C64.9274 2.11464 64.9274 1.2086 64.9274 0.503906H58.4847Z" fill="white"/>
<path d="M8.95938 17.6165H23.0528V12.6836H8.15404C3.62402 12.6836 0 14.093 0 18.8245V29.395H27.6835V23.7574H6.54337V19.9319C6.4427 18.7239 7.55004 17.6165 8.95938 17.6165Z" fill="white"/>
<path d="M0 0.503906V5.83948C0 9.16162 2.91935 11.7791 6.4427 11.7791V6.24216H27.6835V0.503906H0Z" fill="white"/>
<path d="M106.305 20.4357V0.603516H112.848V19.8317C112.848 20.7377 113.15 21.5431 113.855 22.1471C114.559 22.7512 115.465 23.0532 116.472 23.0532H135.297V29.2948H116.17C114.761 29.2948 113.553 29.0934 112.345 28.5901C111.137 28.0867 110.13 27.4827 109.224 26.6773C108.318 25.872 107.613 24.8653 107.11 23.8586C106.506 22.8518 106.305 21.6438 106.305 20.4357Z" fill="white"/>
<path d="M235.866 6.2411V0.603516H208.484V29.3955H235.866V23.7579H214.927V17.1136H231.839V12.1807H214.927V6.2411H235.866Z" fill="white"/>
<path d="M89.9889 23.255C88.4789 23.7584 87.3716 23.9597 84.9556 23.9597C82.5396 23.9597 81.4322 23.7584 79.9222 23.255C76.4995 22.1477 74.4862 19.5302 74.3855 15.8054C74.3855 14.698 74.3855 13.6913 74.5869 12.6846C75.0902 9.96644 76.6002 8.05369 79.3182 6.94631C81.0296 6.24161 82.7409 5.9396 84.9556 5.9396C87.2709 5.9396 88.9823 6.24161 90.5929 6.94631C93.2103 8.05369 94.821 9.96644 95.3243 12.6846C95.5256 13.6913 95.5256 14.698 95.5256 15.8054C95.425 19.5302 93.4116 22.1477 89.9889 23.255ZM100.257 7.55034C98.445 4.22819 95.5256 2.11409 91.5996 1.00671C89.2843 0.302013 87.1703 0 84.9556 0C82.8416 0 80.6269 0.302013 78.4122 0.90604C74.3855 2.01342 71.5668 4.22819 69.7548 7.44967C68.2448 10.1678 67.6408 13.2886 68.0435 17.0134C68.5468 21.5436 70.6608 24.9664 74.4862 27.2819C77.3049 28.9933 80.6269 29.7987 85.0562 29.8993C89.3849 29.7987 92.8076 28.9933 95.6263 27.2819C99.4516 24.9664 101.566 21.5436 102.069 17.0134C102.371 13.3893 101.767 10.2685 100.257 7.55034Z" fill="white"/>
<path d="M160.662 0.603516V16.4089C160.662 17.2143 160.561 18.1203 160.36 18.9257C159.756 21.3418 158.045 22.9525 155.528 23.5565C154.521 23.7579 153.515 23.9592 152.407 23.9592C151.401 23.9592 150.293 23.8586 149.287 23.5565C146.669 22.9525 144.958 21.3418 144.455 18.9257C144.253 18.1203 144.153 17.2143 144.153 16.4089V0.603516H137.609V16.7109C137.609 17.919 137.71 18.9257 137.911 19.8317C138.918 24.5632 141.837 27.5834 146.669 29.0934C148.481 29.6975 150.394 29.8988 152.407 29.8988C154.421 29.8988 156.333 29.6975 158.145 29.0934C162.978 27.5834 165.796 24.5632 166.904 19.8317C167.105 18.9257 167.206 17.919 167.206 16.7109V0.603516H160.662Z" fill="white"/>
</g>
<g clip-path="url(#clip1_22198_32856)">
<path d="M322.018 0.592123C321.022 2.3973 320.135 4.10937 319.124 5.74385C318.927 6.06195 318.255 6.21453 317.799 6.21712C313.362 6.25333 308.924 6.2404 304.486 6.2404C304.012 6.2404 303.537 6.23005 303.063 6.25074C301.519 6.31798 300.345 7.43522 300.353 8.81626C300.358 10.1171 301.499 11.2757 302.983 11.3456C304.444 11.4154 305.913 11.3663 307.377 11.3663C310.134 11.3663 312.891 11.3611 315.65 11.3688C320.401 11.3844 324.34 14.7542 325.005 19.3628C325.656 23.8809 322.84 28.218 318.324 29.5732C317.593 29.793 316.801 29.9249 316.038 29.9275C308.499 29.9533 300.963 29.943 293.047 29.943C294.205 27.9283 295.23 26.0792 296.347 24.2921C296.492 24.0594 297.133 24.0775 297.544 24.0775C303.446 24.0645 309.35 24.0723 315.252 24.0671C317.662 24.0671 319.25 22.7042 319.253 20.6456C319.255 18.6154 317.631 17.224 315.239 17.2214C311.274 17.2163 307.31 17.2654 303.348 17.2059C297.943 17.1232 294.198 13.1559 294.599 8.03005C294.914 4.01626 298.292 0.55333 302.432 0.452468C308.761 0.297295 315.097 0.405916 321.43 0.408503C321.552 0.408503 321.674 0.478329 322.02 0.58695L322.018 0.592123Z" fill="white"/>
<path d="M385.19 29.8922H379.324V22.9249C377.837 22.9249 376.48 22.9249 375.119 22.9249C373.523 22.9249 371.93 22.9042 370.335 22.9327C369.631 22.9456 369.316 22.7103 369.339 21.9654C369.378 20.6723 369.383 19.3766 369.336 18.0861C369.308 17.2922 369.616 17.031 370.392 17.0387C372.934 17.0698 375.479 17.0077 378.018 17.0672C379.053 17.093 379.353 16.7361 379.332 15.7249C379.273 12.9292 379.311 10.131 379.311 7.32234C372.789 8.1551 361.617 15.681 361.143 29.9672C360.184 29.9672 359.214 29.9672 358.244 29.9672C357.274 29.9672 356.359 29.9672 355.156 29.9672C355.311 28.2551 355.311 26.6232 355.63 25.0534C357.965 13.5189 364.785 5.78872 375.825 1.92493C378.463 1.00165 381.383 0.882685 384.179 0.417168C384.856 0.303375 385.327 0.461133 385.324 1.34562C385.298 10.6585 385.301 19.9689 385.291 29.2818C385.291 29.4473 385.236 29.6129 385.19 29.8922Z" fill="white"/>
<path d="M335.509 18.1311C335.509 19.9518 335.509 21.7544 335.509 23.5544C335.509 25.3647 335.499 27.1751 335.509 28.9854C335.512 29.5647 335.434 29.9889 334.682 29.9708C333.094 29.9346 331.506 29.9604 329.796 29.9604C329.752 29.5053 329.685 29.138 329.685 28.7708C329.68 23.6837 329.711 18.5966 329.664 13.5096C329.654 12.4828 329.975 12.1854 330.986 12.188C334.387 12.1958 337.793 12.1803 341.191 12.038C344.142 11.9139 347.059 11.4277 349.462 9.53198C350.429 8.76905 351.145 7.6906 351.978 6.75698C351.89 6.6225 351.802 6.48802 351.712 6.35354C351.262 6.33026 350.812 6.28888 350.362 6.28888C343.984 6.28371 337.607 6.25267 331.229 6.30957C329.967 6.31991 329.535 5.93715 329.662 4.69319C329.763 3.71302 329.747 2.70698 329.662 1.72164C329.566 0.604397 330.042 0.350949 331.074 0.353535C338.83 0.387156 346.586 0.371639 354.345 0.371639C355.552 0.371639 356.757 0.394914 357.965 0.371639C358.697 0.356121 358.922 0.674225 358.917 1.38802C358.863 9.1725 354.476 14.8673 346.886 16.5328C343.454 17.2854 339.911 17.5182 336.417 17.9889C336.166 18.0225 335.918 18.0665 335.509 18.1285V18.1311Z" fill="white"/>
<path d="M418.148 29.6007C413.081 29.6007 408.341 29.7636 403.616 29.5619C396.811 29.2697 391.06 23.8024 390.036 16.9723C389.019 10.2042 392.909 3.52917 399.418 1.17572C401.125 0.560201 403.011 0.247269 404.829 0.180027C408.744 0.0326136 412.667 0.133477 416.588 0.130891C417.002 0.130891 417.418 0.130891 418.158 0.130891C416.997 2.17658 416.024 3.97658 414.946 5.70675C414.77 5.98606 414.111 6.06106 413.673 6.06365C410.702 6.09468 407.728 6.04813 404.756 6.0921C399.457 6.1671 395.684 10.1395 395.86 15.405C396.012 19.9542 399.868 23.5645 404.78 23.6705C407.707 23.7352 410.64 23.7093 413.567 23.6731C414.429 23.6628 414.985 23.8697 415.406 24.7102C416.205 26.3085 417.147 27.8343 418.15 29.5981L418.148 29.6007Z" fill="white"/>
<path d="M444.503 12.9263C444.503 14.4884 444.49 15.8565 444.508 17.2271C444.519 18.1116 443.903 18.0056 443.347 18.0082C439.212 18.0108 435.074 18.0082 430.939 18.0134C428.919 18.0159 428.539 18.4013 428.523 20.4392C428.515 21.259 428.575 22.0815 428.51 22.8961C428.427 23.9047 428.792 24.2306 429.824 24.2228C435.596 24.1789 441.371 24.2021 447.146 24.2047C448.324 24.2047 448.914 24.778 448.915 25.9246C448.915 27.2073 448.915 28.4927 448.915 29.8711H422.151C422.151 29.3151 422.146 28.7694 422.151 28.2263C422.187 24.9108 422.089 21.5849 422.308 18.2823C422.5 15.3832 424.349 13.6349 427.261 13.1953C428.407 13.022 429.576 12.9496 430.734 12.9418C435.255 12.9134 439.773 12.9315 444.506 12.9315L444.503 12.9263Z" fill="white"/>
<path d="M435.522 0.511217C439.569 0.511217 443.617 0.534492 447.664 0.490527C448.608 0.480182 448.996 0.741389 448.929 1.72932C448.856 2.80001 448.854 3.88622 448.929 4.95691C448.999 5.9707 448.644 6.29139 447.62 6.28363C441.894 6.23967 436.166 6.26294 430.44 6.26294C429.175 6.26294 428.54 6.88104 428.537 8.11725C428.537 9.10777 428.5 10.1009 428.544 11.0888C428.581 11.9345 428.226 12.1052 427.448 11.9966C424.458 11.5854 422.27 9.00174 422.156 5.62932C422.112 4.3388 422.203 3.04053 422.131 1.7526C422.076 0.785354 422.415 0.482769 423.377 0.493114C427.425 0.537079 431.472 0.511216 435.519 0.50863L435.522 0.511217Z" fill="white"/>
<path d="M271.752 12.4216C271.752 18.1009 271.765 23.5267 271.716 28.9526C271.716 29.2216 271.189 29.6949 270.881 29.7155C269.596 29.8009 268.295 29.8112 267.012 29.7104C266.683 29.6845 266.13 29.1466 266.127 28.8414C266.073 23.6716 266.076 18.5017 266.114 13.3319C266.114 13.0267 266.505 12.4759 266.733 12.463C268.352 12.388 269.976 12.4216 271.752 12.4216Z" fill="white"/>
<path d="M277.5 18.2975V12.5742H289.12C289.12 14.3147 289.143 15.9777 289.091 17.6406C289.084 17.8656 288.709 18.2665 288.502 18.269C284.86 18.3078 281.219 18.2975 277.5 18.2975Z" fill="white"/>
<path d="M266.078 3.38879C266.083 1.76724 267.283 0.598271 268.951 0.587926C270.519 0.580167 271.76 1.85 271.76 3.46638C271.76 5.15517 270.521 6.35258 268.809 6.32155C267.19 6.29051 266.073 5.09051 266.078 3.38879Z" fill="white"/>
</g>
<defs>
<clipPath id="clip0_22198_32856">
<rect width="235.863" height="30" fill="white"/>
</clipPath>
<clipPath id="clip1_22198_32856">
<rect width="183.103" height="30" fill="white" transform="translate(265.859)"/>
</clipPath>
</defs>
</svg>
